PathFileType	4	(X/Y/Z)	 2.5Hzlow3min.trc
DataRate	CameraRate	NumFrames	NumMarkers	Units	OrigDataRate	OrigDataStartFrame	OrigNumFrames
200	200	11	35	m	200	251	1000
Frame#	Time	C7			LSH			RSH			MAN			RASI			LASI			HIPR			HIPL			RPSI			LPSI			COX			RTHI1			RTHI2			RTHI3			RTHI4			RSHA1			RSHA2			RSHA3			RSHA4			RHEEL			RMET5			RMET1			RTOE			LTHI1			LTHI2			LTHI3			LTHI4			LSHA1			LSHA2			LSHA3			LSHA4			LHEEL			LMET5			LMET1			LTOE			
		X1	Y1	Z1	X2	Y2	Z2	X3	Y3	Z3	X4	Y4	Z4	X5	Y5	Z5	X6	Y6	Z6	X7	Y7	Z7	X8	Y8	Z8	X9	Y9	Z9	X10	Y10	Z10	X11	Y11	Z11	X12	Y12	Z12	X13	Y13	Z13	X14	Y14	Z14	X15	Y15	Z15	X16	Y16	Z16	X17	Y17	Z17	X18	Y18	Z18	X19	Y19	Z19	X20	Y20	Z20	X21	Y21	Z21	X22	Y22	Z22	X23	Y23	Z23	X24	Y24	Z24	X25	Y25	Z25	X26	Y26	Z26	X27	Y27	Z27	X28	Y28	Z28	X29	Y29	Z29	X30	Y30	Z30	X31	Y31	Z31	X32	Y32	Z32	X33	Y33	Z33	X34	Y34	Z34	X35	Y35	Z35	
251	1.2550	-0.334047	1.386475	-0.522543	-0.294057	1.351672	-0.698776	-0.295116	1.367765	-0.349375	-0.218991	1.346966	-0.523488	-0.175678	0.959303	-0.433312	-0.172288	0.971523	-0.611585	-0.243480	1.001158	-0.388624	-0.239932	1.013958	-0.651140	-0.320005	0.985928	-0.461866	-0.319880	0.990778	-0.571906	-0.326153	0.999889	-0.519227	-0.269059	0.786874	-0.357123	-0.253528	0.729240	-0.351407	-0.190581	0.741229	-0.361307	-0.197989	0.801911	-0.367435	-0.301672	0.346588	-0.341906	-0.323246	0.308320	-0.343806	-0.268809	0.286472	-0.359002	-0.252963	0.323566	-0.360199	-0.415017	0.107938	-0.409851	-0.280264	0.031816	-0.337444	-0.242512	0.034795	-0.407772	-0.219905	0.025168	-0.399216	-0.243239	0.759889	-0.703977	-0.225933	0.700721	-0.704920	-0.164102	0.712302	-0.688044	-0.173755	0.771242	-0.686079	-0.314046	0.331163	-0.710827	-0.330657	0.294428	-0.707580	-0.270931	0.274706	-0.709387	-0.261476	0.317263	-0.712947	-0.392647	0.122045	-0.660840	-0.259678	0.028533	-0.715658	-0.226857	0.036250	-0.647105	-0.205456	0.025651	-0.653292	
252	1.2600	-0.334221	1.390445	-0.522627	-0.294261	1.355973	-0.698768	-0.295035	1.371978	-0.349631	-0.219247	1.351272	-0.523678	-0.175493	0.963312	-0.433482	-0.172071	0.975424	-0.611505	-0.243215	1.005579	-0.388965	-0.239810	1.018032	-0.651101	-0.319527	0.990453	-0.462162	-0.319387	0.995111	-0.572106	-0.325772	1.004264	-0.519481	-0.269534	0.791453	-0.357291	-0.254457	0.733685	-0.351445	-0.191386	0.745199	-0.361128	-0.198356	0.805933	-0.367421	-0.303696	0.350215	-0.341593	-0.324493	0.311561	-0.343488	-0.269725	0.290311	-0.358176	-0.254306	0.327584	-0.359565	-0.413341	0.110883	-0.409167	-0.279836	0.032133	-0.337441	-0.242229	0.035079	-0.407327	-0.219908	0.025297	-0.398965	-0.244086	0.764210	-0.703928	-0.227052	0.704953	-0.705114	-0.165041	0.716234	-0.688685	-0.174421	0.775214	-0.686532	-0.314790	0.334169	-0.711377	-0.330934	0.297191	-0.708160	-0.271011	0.278152	-0.710455	-0.262036	0.320789	-0.713853	-0.390681	0.124995	-0.661778	-0.259220	0.028981	-0.715612	-0.226609	0.036727	-0.647723	-0.205545	0.026139	-0.654114	
253	1.2650	-0.334382	1.394216	-0.522721	-0.294453	1.360064	-0.698780	-0.294961	1.375956	-0.349881	-0.219489	1.355359	-0.523870	-0.175333	0.967088	-0.433648	-0.171884	0.979119	-0.611439	-0.242967	1.009742	-0.389283	-0.239680	1.021908	-0.651090	-0.319103	0.994753	-0.462430	-0.318951	0.999236	-0.572288	-0.325476	1.008433	-0.519731	-0.270044	0.795815	-0.357479	-0.255400	0.737922	-0.351536	-0.192213	0.748975	-0.360962	-0.198748	0.809757	-0.367375	-0.305724	0.353701	-0.341071	-0.325645	0.314671	-0.343216	-0.270561	0.294016	-0.357392	-0.255559	0.331443	-0.358962	-0.411657	0.113773	-0.408498	-0.279396	0.032472	-0.337463	-0.241924	0.035370	-0.406903	-0.219882	0.025457	-0.398709	-0.244914	0.768280	-0.703864	-0.228142	0.708941	-0.705265	-0.165966	0.719944	-0.689262	-0.175080	0.778956	-0.686947	-0.315386	0.337023	-0.711930	-0.331077	0.299819	-0.708741	-0.270977	0.281422	-0.711432	-0.262470	0.324133	-0.714671	-0.388744	0.127846	-0.662687	-0.258734	0.029525	-0.715535	-0.226391	0.037262	-0.648338	-0.205682	0.026734	-0.655006	
254	1.2700	-0.334531	1.397783	-0.522826	-0.294639	1.363928	-0.698809	-0.294948	1.379678	-0.350107	-0.219716	1.359214	-0.524063	-0.175192	0.970621	-0.433810	-0.171724	0.982591	-0.611389	-0.242706	1.013631	-0.389577	-0.239539	1.025573	-0.651102	-0.318727	0.998821	-0.462666	-0.318568	1.003155	-0.572458	-0.325221	1.012382	-0.519955	-0.270588	0.799943	-0.357681	-0.256361	0.741934	-0.351665	-0.193070	0.752550	-0.360792	-0.199166	0.813366	-0.367302	-0.307614	0.357014	-0.340509	-0.326689	0.317634	-0.342982	-0.271303	0.297564	-0.356654	-0.256708	0.335127	-0.358388	-0.409948	0.116573	-0.407833	-0.278938	0.032850	-0.337526	-0.241597	0.035674	-0.406508	-0.219818	0.025651	-0.398441	-0.245718	0.772081	-0.703799	-0.229197	0.712664	-0.705371	-0.166876	0.723413	-0.689773	-0.175738	0.782442	-0.687324	-0.315818	0.339688	-0.712465	-0.331089	0.302293	-0.709320	-0.270827	0.284498	-0.712297	-0.262775	0.327279	-0.715390	-0.386867	0.130586	-0.663547	-0.258223	0.030180	-0.715425	-0.226190	0.037864	-0.648938	-0.205845	0.027434	-0.655935	
255	1.2750	-0.334668	1.401133	-0.522933	-0.294823	1.367554	-0.698855	-0.294973	1.383132	-0.350316	-0.219927	1.362834	-0.524255	-0.175065	0.973905	-0.433973	-0.171587	0.985832	-0.611357	-0.242432	1.017256	-0.389851	-0.239367	1.029019	-0.651133	-0.318389	1.002642	-0.462874	-0.318234	1.006845	-0.572609	-0.325037	1.016096	-0.520166	-0.271165	0.803821	-0.357897	-0.257342	0.745700	-0.351836	-0.193951	0.755903	-0.360642	-0.199609	0.816750	-0.367206	-0.309191	0.360105	-0.340088	-0.327616	0.320436	-0.342778	-0.271939	0.300927	-0.355977	-0.257740	0.338620	-0.357855	-0.408251	0.119292	-0.407229	-0.278468	0.033272	-0.337637	-0.241248	0.035997	-0.406143	-0.219717	0.025881	-0.398151	-0.246499	0.775595	-0.703741	-0.230219	0.716109	-0.705450	-0.167769	0.726615	-0.690210	-0.176389	0.785668	-0.687654	-0.316090	0.342165	-0.712985	-0.330986	0.304596	-0.709901	-0.270571	0.287372	-0.713035	-0.262953	0.330213	-0.716001	-0.385092	0.133182	-0.664332	-0.257700	0.030953	-0.715289	-0.225971	0.038565	-0.649519	-0.205981	0.028242	-0.656851	
256	1.2800	-0.334792	1.404258	-0.523037	-0.295006	1.370942	-0.698917	-0.295010	1.386333	-0.350517	-0.220123	1.366205	-0.524442	-0.174956	0.976936	-0.434137	-0.171472	0.988828	-0.611349	-0.242150	1.020614	-0.390103	-0.239153	1.032235	-0.651180	-0.318090	1.006213	-0.463049	-0.317948	1.010297	-0.572739	-0.324914	1.019555	-0.520370	-0.271770	0.807429	-0.358130	-0.258334	0.749201	-0.352039	-0.194855	0.759017	-0.360506	-0.200093	0.819892	-0.367099	-0.310495	0.362931	-0.339862	-0.328418	0.323062	-0.342596	-0.272463	0.304099	-0.355365	-0.258646	0.341903	-0.357368	-0.406584	0.121911	-0.406694	-0.277999	0.033742	-0.337797	-0.240876	0.036353	-0.405797	-0.219575	0.026151	-0.397826	-0.247243	0.778822	-0.703694	-0.231194	0.719279	-0.705517	-0.168637	0.729544	-0.690570	-0.177026	0.788628	-0.687931	-0.316220	0.344447	-0.713488	-0.330786	0.306731	-0.710480	-0.270229	0.290038	-0.713633	-0.263018	0.332926	-0.716498	-0.383454	0.135631	-0.665032	-0.257178	0.031851	-0.715138	-0.225713	0.039359	-0.650054	-0.206051	0.029142	-0.657705	
257	1.2850	-0.334902	1.407159	-0.523136	-0.295195	1.374081	-0.698994	-0.295042	1.389291	-0.350716	-0.220312	1.369318	-0.524621	-0.174866	0.979706	-0.434306	-0.171377	0.991576	-0.611365	-0.241856	1.023707	-0.390332	-0.238911	1.035210	-0.651241	-0.317826	1.009523	-0.463192	-0.317704	1.013496	-0.572852	-0.324857	1.022761	-0.520564	-0.272406	0.810753	-0.358372	-0.259335	0.752438	-0.352268	-0.195770	0.761887	-0.360393	-0.200619	0.822791	-0.366992	-0.311532	0.365497	-0.339806	-0.329093	0.325499	-0.342426	-0.272868	0.307055	-0.354837	-0.259420	0.344957	-0.356940	-0.404987	0.124397	-0.406192	-0.277534	0.034266	-0.338004	-0.240477	0.036780	-0.405462	-0.219410	0.026447	-0.397447	-0.247940	0.781759	-0.703668	-0.232112	0.722164	-0.705576	-0.169471	0.732190	-0.690851	-0.177638	0.791307	-0.688147	-0.316228	0.346535	-0.713965	-0.330514	0.308699	-0.711042	-0.269826	0.292475	-0.714085	-0.262987	0.335414	-0.716881	-0.381990	0.137920	-0.665627	-0.256674	0.032874	-0.714993	-0.225405	0.040258	-0.650529	-0.206026	0.030118	-0.658454	
258	1.2900	-0.335001	1.409827	-0.523235	-0.295392	1.376964	-0.699082	-0.295054	1.392010	-0.350914	-0.220506	1.372173	-0.524786	-0.174788	0.982238	-0.434480	-0.171301	0.994068	-0.611407	-0.241556	1.026540	-0.390544	-0.238693	1.037924	-0.651310	-0.317591	1.012568	-0.463316	-0.317497	1.016450	-0.572951	-0.324788	1.025715	-0.520725	-0.273075	0.813771	-0.358628	-0.260343	0.755383	-0.352521	-0.196698	0.764509	-0.360293	-0.201181	0.825432	-0.366877	-0.312295	0.367794	-0.339897	-0.329643	0.327737	-0.342261	-0.273164	0.309773	-0.354384	-0.260062	0.347763	-0.356580	-0.403473	0.126710	-0.405740	-0.277085	0.034846	-0.338249	-0.240054	0.037282	-0.405128	-0.219219	0.026783	-0.396995	-0.248574	0.784404	-0.703669	-0.232953	0.724766	-0.705633	-0.170255	0.734558	-0.691047	-0.178212	0.793704	-0.688296	-0.316139	0.348443	-0.714401	-0.330203	0.310496	-0.711575	-0.269397	0.294682	-0.714396	-0.262885	0.337675	-0.717153	-0.380728	0.140044	-0.666121	-0.256198	0.034017	-0.714872	-0.225053	0.041258	-0.650932	-0.205902	0.031152	-0.659069	
259	1.2950	-0.335092	1.412248	-0.523336	-0.295601	1.379590	-0.699181	-0.295011	1.394488	-0.351123	-0.220707	1.374774	-0.524940	-0.174722	0.984528	-0.434663	-0.171246	0.996300	-0.611474	-0.241268	1.029121	-0.390740	-0.238498	1.040377	-0.651391	-0.317387	1.015357	-0.463419	-0.317329	1.019137	-0.573034	-0.324784	1.028409	-0.520879	-0.273768	0.816486	-0.358903	-0.261342	0.758028	-0.352788	-0.197625	0.766860	-0.360230	-0.201783	0.827818	-0.366764	-0.312863	0.369856	-0.340049	-0.330073	0.329767	-0.342099	-0.273360	0.312231	-0.354016	-0.260576	0.350306	-0.356296	-0.402081	0.128826	-0.405380	-0.276668	0.035480	-0.338516	-0.239610	0.037871	-0.404778	-0.219007	0.027175	-0.396473	-0.249130	0.786761	-0.703698	-0.233702	0.727085	-0.705705	-0.170968	0.736648	-0.691156	-0.178729	0.795826	-0.688371	-0.315992	0.350194	-0.714801	-0.329883	0.312149	-0.712061	-0.268976	0.296669	-0.714577	-0.262740	0.339714	-0.717324	-0.379696	0.141989	-0.666502	-0.255757	0.035271	-0.714790	-0.224675	0.042351	-0.651245	-0.205685	0.032235	-0.659524	
260	1.3000	-0.335169	1.414421	-0.523443	-0.295821	1.381959	-0.699290	-0.294940	1.396715	-0.351337	-0.220848	1.377121	-0.525113	-0.174675	0.986573	-0.434852	-0.171215	0.998269	-0.611565	-0.240990	1.031439	-0.390921	-0.238326	1.042571	-0.651483	-0.317215	1.017876	-0.463509	-0.317197	1.021570	-0.573108	-0.324772	1.030841	-0.521009	-0.274486	0.818879	-0.359193	-0.262321	0.760371	-0.353068	-0.198545	0.768955	-0.360188	-0.202424	0.829943	-0.366658	-0.313326	0.371698	-0.340146	-0.330394	0.331585	-0.341940	-0.273470	0.314430	-0.353735	-0.260970	0.352573	-0.356088	-0.400861	0.130734	-0.405123	-0.276293	0.036169	-0.338795	-0.239156	0.038550	-0.404398	-0.218772	0.027643	-0.395892	-0.249593	0.788833	-0.703754	-0.234330	0.729121	-0.705792	-0.171595	0.738477	-0.691179	-0.179179	0.797679	-0.688365	-0.315821	0.351796	-0.715147	-0.329582	0.313679	-0.712473	-0.268599	0.298446	-0.714645	-0.262581	0.341537	-0.717405	-0.378906	0.143758	-0.666766	-0.255356	0.036616	-0.714735	-0.224307	0.043506	-0.651458	-0.205415	0.033349	-0.659815	
261	1.3050	-0.335234	1.416351	-0.523555	-0.296054	1.384063	-0.699403	-0.294870	1.398684	-0.351545	-0.220926	1.379216	-0.525310	-0.174647	0.988376	-0.435046	-0.171207	0.999977	-0.611677	-0.240732	1.033506	-0.391094	-0.238189	1.044495	-0.651585	-0.317076	1.020126	-0.463592	-0.317100	1.023740	-0.573181	-0.324729	1.033036	-0.521108	-0.275226	0.820957	-0.359485	-0.263269	0.762408	-0.353356	-0.199443	0.770795	-0.360175	-0.203086	0.831808	-0.366573	-0.313679	0.373329	-0.340185	-0.330619	0.333190	-0.341789	-0.273511	0.316347	-0.353539	-0.261257	0.354557	-0.355957	-0.399851	0.132417	-0.404985	-0.275962	0.036915	-0.339079	-0.238698	0.039326	-0.403993	-0.218520	0.028208	-0.395266	-0.249952	0.790622	-0.703842	-0.234830	0.730874	-0.705891	-0.172119	0.740053	-0.691113	-0.179553	0.799269	-0.688277	-0.315659	0.353253	-0.715419	-0.329334	0.315085	-0.712793	-0.268298	0.300019	-0.714620	-0.262437	0.343152	-0.717410	-0.378359	0.145337	-0.666921	-0.254997	0.038021	-0.714701	-0.223981	0.044709	-0.651571	-0.205130	0.034488	-0.659951	
